<svg width="54" height="47" viewBox="0 0 54 47" fill="none" xmlns="http://www.w3.org/2000/svg">
<path d="M27.0689 15.1116C26.9127 15.1116 26.8351 15.3009 26.9463 15.4106L34.3022 22.6625C34.407 22.7658 34.5845 22.6915 34.5845 22.5443V22.5443C34.5845 20.5731 33.7927 18.6825 32.3833 17.2886C30.9738 15.8947 29.0622 15.1116 27.0689 15.1116V15.1116ZM14.681 20.7686C14.9755 18.8803 17.2692 18.4767 18.628 19.8206V19.8206C19.3267 20.5116 19.5601 21.5181 19.5535 22.5009C19.5534 22.5153 19.5533 22.5298 19.5533 22.5443C19.5533 24.5156 20.3451 26.4062 21.7546 27.8001C23.164 29.194 25.0757 29.9771 27.0689 29.9771C27.104 29.9771 27.1391 29.9768 27.1741 29.9762C28.1314 29.9599 29.1107 30.1877 29.7914 30.861V30.861C31.1539 32.2084 30.7492 34.5097 28.8547 34.7972C28.2722 34.8856 27.6765 34.9323 27.0689 34.9323C23.7468 34.9323 20.5608 33.6271 18.2117 31.3039C15.8626 28.9807 14.5429 25.8298 14.5429 22.5443C14.5429 21.9401 14.5907 21.3477 14.681 20.7686ZM2.01692 3.39262L7.72878 9.04151V9.04151C8.32643 9.63258 8.26655 10.6126 7.63082 11.1625C5.08985 13.3604 2.92912 15.9576 1.26182 18.8884C-0.0266946 21.1532 -0.020238 23.9331 1.27096 26.1964C6.35362 35.1058 15.9968 41.1262 27.0689 41.1262C30.4207 41.1262 33.6418 40.5724 36.6356 39.5604C37.4996 39.2684 38.463 39.452 39.1189 40.0856V40.0856L44.861 45.7643C45.7326 46.6264 47.1356 46.6264 48.0073 45.7643V45.7643C48.8927 44.8887 48.8927 43.4586 48.0073 42.5829L5.19852 0.246094M27.0689 10.1564C30.391 10.1564 33.5771 11.4616 35.9261 13.7848C38.2752 16.1079 39.5949 19.2589 39.5949 22.5443C39.5949 22.618 39.5942 22.6916 39.5928 22.7651C39.5421 25.4294 39.9321 28.279 41.8268 30.1528V30.1528C44.216 32.5156 48.076 32.7289 50.1896 30.1166C51.0907 29.0028 51.9128 27.821 52.6453 26.5816C54.1162 24.0929 54.114 20.9965 52.6435 18.5075C47.505 9.80997 37.9809 3.96247 27.0689 3.96247C25.4486 3.96247 23.8603 4.09467 22.309 4.34687C19.8328 4.74944 19.1408 7.74731 20.9327 9.50311V9.50311C21.8784 10.4298 23.2699 10.6795 24.5667 10.4126C25.3727 10.2467 26.2068 10.1564 27.0689 10.1564Z" fill="black"/>
</svg>
