<svg width="100" height="100" viewBox="0 0 100 100" fill="none" xmlns="http://www.w3.org/2000/svg">
<path d="M41.6669 12.5L33.3335 20.8333V29.1667H20.8335C16.0419 29.1667 13.0002 33.3333 12.5002 37.5L8.33353 79.1667C7.83353 83.3333 10.5835 87.5 16.6669 87.5H83.3335C89.4169 87.5 92.1669 83.3333 91.6669 79.1667L87.5002 37.5C87.0002 33.3333 83.5835 29.1667 79.1669 29.1667H66.6669V20.8333L58.3335 12.5H41.6669ZM41.6669 20.8333H58.3335V29.1667H41.6669V20.8333ZM45.8335 41.6667H54.1669V54.1667H66.6669V62.5H54.1669V75H45.8335V62.5H33.3335V54.1667H45.8335V41.6667Z" fill="black" fill-opacity="0.8"/>
</svg>
